# xmcd
#
# Track frame offsets:
#	150
#	15707
#	28522
#	39927
#	51732
#	60695
#	72767
#	85142
#	96030
#	105172
#	117965
#	129540
#	139697
#	150505
#	164947
#	174745
#	188340
#	205087
#	216187
#	227890
#	239560
#	253865
#	266740
#	282842
#	298480
#	308937
#	319437
#	336430
#
# Disc length: 4648 seconds
#
# Revision: 0
# Processed by: cddbd v1.5.2PL0 Copyright (c) Steve Scherf et al.
# Submitted via: EasyCDDAExtractor 15.3.0.1
#
DISCID=ac12261c
DTITLE=Various Artist - D Singles Volume 6 Cd 4
DYEAR=1900
DGENRE=
TTITLE0=Price Bill and Shirley Evans - Secret Of Billy Jack And Betty Jean
TTITLE1=Price Bill - When I Lost You I Didn't Lose Your Memory
TTITLE2=Blakely Cliff - I'm Just A Man Like Daddy
TTITLE3=Blakely Cliff - Stay With Me
TTITLE4=Foster Jim and Barry Burke - All I Really Have To Sell Is Me
TTITLE5=Foster Jim and Barry Burke - Elvira
TTITLE6=Strait George and Ace In The Hole - I Just Can't Go On Dying Like This
TTITLE7=Strait George and Ace In The Hole - Honky Tonk Downstairs
TTITLE8=Strait George and Ace In The Hole - Little Liza Jane
TTITLE9=Strait George and Ace In The Hole - Right Or Wrong
TTITLE10=Blakely Cliff - Sometimes (This Is Our Heaven)
TTITLE11=Blakely Cliff - She's So Satisfied
TTITLE12=Foster Jim and Barry Burke - I'm Still Thinking Of You
TTITLE13=Foster Jim and Barry Burke - Why Me Lord
TTITLE14=Strait George and Ace In The Hole - That Don't Change) The Way I Feel A
TTITLE14=bout You
TTITLE15=Strait George and Ace In The Hole - Lonesome Rodeo Cowboy
TTITLE16=Potter Melvin - She's Too Ugly
TTITLE17=Potter Melvin - For The First Time
TTITLE18=Douglas Joe - You're Still On My Mind
TTITLE19=Douglas Joe - Wine Flow Free
TTITLE20=Ace In The Hole - I Don't Want To Talk It Over Anymore
TTITLE21=Ace In The Hole - Loneliest Singer In Town
TTITLE22=Rogers Sally - Gone Too Far
TTITLE23=Rogers Sally - Night Life
TTITLE24=Mason Don - Where Are You Now When We Need You Ross Perot
TTITLE25=Mason Don - Where Are You Now When We Need You Ross Perot (Instrument
TTITLE25=al)
TTITLE26=Blaker Clay - Only Thing I Have Left
TTITLE27=Blaker Clay - Texas Honky Tonk
EXTD=
EXTT0=
EXTT1=
EXTT2=
EXTT3=
EXTT4=
EXTT5=
EXTT6=
EXTT7=
EXTT8=
EXTT9=
EXTT10=
EXTT11=
EXTT12=
EXTT13=
EXTT14=
EXTT15=
EXTT16=
EXTT17=
EXTT18=
EXTT19=
EXTT20=
EXTT21=
EXTT22=
EXTT23=
EXTT24=
EXTT25=
EXTT26=
EXTT27=
PLAYORDER=
